<?xml version="1.0" standalone="no"?>
<!DOCTYPE svg PUBLIC "-//W3C//DTD SVG 20010904//EN"
 "http://www.w3.org/TR/2001/REC-SVG-20010904/DTD/svg10.dtd">
<svg version="1.0" xmlns="http://www.w3.org/2000/svg"
 width="700.000000pt" height="700.000000pt" viewBox="0 0 700.000000 700.000000"
 preserveAspectRatio="xMidYMid meet">
<metadata>
Created by potrace 1.11, written by Peter Selinger 2001-2013
</metadata>
<g transform="translate(0.000000,700.000000) scale(0.100000,-0.100000)"
fill="#000000" stroke="none">
<path d="M0 3500 l0 -3500 3500 0 3500 0 0 3500 0 3500 -3500 0 -3500 0 0
-3500z m3530 2893 c47 -19 97 -69 124 -123 13 -25 103 -266 201 -537 l178
-491 -339 -661 c-187 -363 -343 -661 -347 -661 -8 0 -1367 567 -1374 573 -12
12 -375 1029 -380 1064 -14 102 44 206 141 253 70 33 1555 576 1631 596 55 14
111 10 165 -13z m2166 -1011 c45 -23 95 -73 117 -117 8 -16 146 -392 307 -835
321 -881 316 -865 273 -960 -22 -47 -58 -90 -96 -114 -23 -15 -1036 -386
-1053 -386 -13 0 -1304 666 -1317 679 -6 6 101 273 277 694 l287 684 462 168
c254 93 491 179 527 192 77 28 155 26 216 -5z m-3269 -1692 c359 -184 653
-339 653 -343 0 -7 -567 -1367 -573 -1373 -11 -11 -1031 -376 -1064 -381 -94
-13 -201 42 -246 125 -14 26 -157 409 -317 852 -317 871 -315 863 -276 955 20
46 68 100 111 123 54 29 1020 380 1040 379 11 -1 314 -153 672 -337z m1907
-894 c373 -157 680 -287 682 -289 3 -2 90 -238 194 -525 197 -540 205 -566
178 -643 -20 -60 -64 -114 -115 -141 -57 -31 -1596 -592 -1665 -608 -103 -22
-219 34 -268 130 -10 19 -100 261 -200 537 l-182 502 267 518 c372 720 416
803 424 803 4 0 313 -128 685 -284z"/>
</g>
</svg>
