<?xml version="1.0" standalone="no"?>
<!DOCTYPE svg PUBLIC "-//W3C//DTD SVG 20010904//EN"
 "http://www.w3.org/TR/2001/REC-SVG-20010904/DTD/svg10.dtd">
<svg version="1.0" xmlns="http://www.w3.org/2000/svg"
 width="700.000000pt" height="700.000000pt" viewBox="0 0 700.000000 700.000000"
 preserveAspectRatio="xMidYMid meet">
<metadata>
Created by potrace 1.11, written by Peter Selinger 2001-2013
</metadata>
<g transform="translate(0.000000,700.000000) scale(0.100000,-0.100000)"
fill="#000000" stroke="none">
<path d="M0 3500 l0 -3500 3500 0 3500 0 0 3500 0 3500 -3500 0 -3500 0 0
-3500z m3530 2893 c47 -19 97 -69 124 -123 13 -25 103 -266 201 -537 l178
-491 -339 -661 c-187 -363 -343 -661 -347 -661 -9 0 -1366 566 -1373 573 -16
16 -377 1031 -381 1073 -11 102 44 197 141 244 70 33 1555 576 1631 596 55 14
111 10 165 -13z m2166 -1011 c45 -23 95 -73 117 -117 8 -16 146 -392 307 -835
320 -880 316 -865 273 -960 -23 -51 -81 -113 -121 -129 -90 -36 -1018 -371
-1027 -371 -14 0 -1304 665 -1318 679 -6 6 98 267 277 694 l288 684 456 167
c251 91 489 178 527 192 82 29 158 28 221 -4z m-3269 -1692 c359 -184 653
-339 653 -343 0 -8 -567 -1367 -573 -1373 -11 -11 -1031 -376 -1064 -381 -102
-14 -206 44 -253 141 -36 76 -585 1585 -600 1649 -11 50 -1 117 24 166 17 31
71 83 106 102 52 27 1016 377 1035 376 11 -1 314 -153 672 -337z m1907 -894
c373 -157 680 -287 683 -289 2 -3 90 -238 194 -524 196 -539 204 -566 177
-644 -20 -59 -64 -114 -115 -141 -58 -32 -1574 -585 -1655 -605 -61 -14 -123
-7 -177 21 -33 18 -85 72 -104 111 -8 17 -97 256 -197 532 l-183 501 273 529
c367 712 410 793 419 793 4 0 313 -128 685 -284z"/>
</g>
</svg>
