<?xml version="1.0" encoding="UTF-8" standalone="no"?>
<!-- Created with Inkscape (http://www.inkscape.org/) -->

<svg
   xmlns:dc="http://purl.org/dc/elements/1.1/"
   xmlns:cc="http://creativecommons.org/ns#"
   xmlns:rdf="http://www.w3.org/1999/02/22-rdf-syntax-ns#"
   xmlns:svg="http://www.w3.org/2000/svg"
   xmlns="http://www.w3.org/2000/svg"
   xmlns:sodipodi="http://sodipodi.sourceforge.net/DTD/sodipodi-0.dtd"
   xmlns:inkscape="http://www.inkscape.org/namespaces/inkscape"
   width="100mm"
   height="100mm"
   viewBox="0 0 100 100"
   version="1.1"
   id="svg2114"
   inkscape:version="0.92.1 r15371"
   sodipodi:docname="background.svg">
  <defs
     id="defs2108" />
  <sodipodi:namedview
     id="base"
     pagecolor="#ffffff"
     bordercolor="#666666"
     borderopacity="1.0"
     inkscape:pageopacity="0.0"
     inkscape:pageshadow="2"
     inkscape:zoom="1.979899"
     inkscape:cx="89.528376"
     inkscape:cy="212.76283"
     inkscape:document-units="mm"
     inkscape:current-layer="layer2"
     showgrid="false"
     inkscape:window-width="3840"
     inkscape:window-height="2035"
     inkscape:window-x="-13"
     inkscape:window-y="-13"
     inkscape:window-maximized="1"
     fit-margin-top="0"
     fit-margin-left="0"
     fit-margin-right="0"
     fit-margin-bottom="0" />
  <metadata
     id="metadata2111">
    <rdf:RDF>
      <cc:Work
         rdf:about="">
        <dc:format>image/svg+xml</dc:format>
        <dc:type
           rdf:resource="http://purl.org/dc/dcmitype/StillImage" />
        <dc:title></dc:title>
      </cc:Work>
    </rdf:RDF>
  </metadata>
  <g
     inkscape:groupmode="layer"
     id="layer2"
     inkscape:label="background"
     transform="translate(-51.94416,-105.12683)">
    <rect
       id="rect2207"
       width="100"
       height="100"
       x="51.94416"
       y="105.12683"
       style="fill:#107c10;fill-opacity:1;stroke-width:0.26458332" />
  </g>
  <g
     inkscape:label="tiles"
     inkscape:groupmode="layer"
     id="layer1"
     transform="translate(-51.94416,-105.12683)">
    <g
       transform="matrix(0.11111111,0,0,0.11111111,-53.611394,-105.98428)"
       id="g2048">
      <polygon
         style="fill:#32393b"
         points="1835,2365.001 1835,2485 1790,2485 1790,2409.999 1715.001,2409.999 1715.001,2290 1760,2290 1760,2365.001 "
         id="polygon1964" />
      <polygon
         style="fill:#32393b"
         points="1535,2260 1535,2335.001 1415,2335.001 1415,2290 1490.001,2290 1490.001,2214.999 1610,2214.999 1610,2260 "
         id="polygon1966" />
      <polygon
         style="fill:#32393b"
         points="1235,1990 1235,2110 1190,2110 1190,2035 1115,2035 1115,1915 1160,1915 1160,1990 "
         id="polygon1968" />
      <polygon
         style="fill:#32393b"
         points="1460,2065 1460,2184.999 1415,2184.999 1415,2110 1340,2110 1340,1990 1385,1990 1385,2065 "
         id="polygon1970" />
      <rect
         style="fill:#32393b"
         x="1340"
         y="1900"
         width="45"
         height="60"
         id="rect1972" />
      <polygon
         style="fill:#32393b"
         points="1190,2590 1190,2515 1235,2515 1235,2634.999 1040,2634.999 1040,2590 "
         id="polygon1974" />
      <rect
         style="fill:#32393b"
         x="965"
         y="2664.999"
         width="45"
         height="135.00101"
         id="rect1976" />
      <polygon
         style="fill:#32393b"
         points="1084.999,1960 1084.999,1915 1010,1915 1010,1900 965,1900 965,1915 965,1937.5 965,1960 "
         id="polygon1978" />
      <polygon
         style="fill:#32393b"
         points="1640,2065 1640,1990 1685,1990 1685,2110 1490.001,2110 1490.001,2065 "
         id="polygon1980" />
      <polygon
         style="fill:#32393b"
         points="1190,2335.001 1190,2290 1309.999,2290 1309.999,2485 1265,2485 1265,2335.001 "
         id="polygon1982" />
      <polygon
         style="fill:#32393b"
         points="1385,2785 1535,2785 1535,2740 1340,2740 1340,2770 1340,2785 1340,2800 1385,2800 "
         id="polygon1984" />
      <polygon
         style="fill:#32393b"
         points="1715.001,1960 1715.001,1915 1835,1915 1835,2110 1790,2110 1790,1960 "
         id="polygon1986" />
      <polygon
         style="fill:#32393b"
         points="1190,1960 1190,1915 1309.999,1915 1309.999,2110 1265,2110 1265,1960 "
         id="polygon1988" />
      <rect
         style="fill:#32393b"
         x="1490.001"
         y="2365.001"
         width="44.999001"
         height="269.99799"
         id="rect1990" />
      <rect
         style="fill:#32393b"
         x="1715.001"
         y="1990"
         width="44.999001"
         height="270"
         id="rect1992" />
      <rect
         style="fill:#32393b"
         x="1115"
         y="2065"
         width="45"
         height="270.00101"
         id="rect1994" />
      <polygon
         style="fill:#32393b"
         points="1685,2485 1685,2560 1640,2560 1640,2485 1565,2485 1565,2439.999 1760,2439.999 1760,2485 "
         id="polygon1996" />
      <rect
         style="fill:#32393b"
         x="1565"
         y="2740"
         width="45"
         height="60"
         id="rect1998" />
      <polygon
         style="fill:#32393b"
         points="1565,1960 1565,2035 1610,2035 1610,1960 1685,1960 1685,1915 1610,1915 1610,1900 1565,1900 1565,1915 "
         id="polygon2000" />
      <polygon
         style="fill:#32393b"
         points="1385,2260 1385,2335.001 1340,2335.001 1340,2140 1385,2140 1385,2214.999 1460,2214.999 1460,2260 "
         id="polygon2002" />
      <polygon
         style="fill:#32393b"
         points="1160,2365.001 1160,2409.999 965,2409.999 965,2365.001 1040,2365.001 1040,2290 1084.999,2290 1084.999,2365.001 "
         id="polygon2004" />
      <polygon
         style="fill:#32393b"
         points="1084.999,2664.999 1084.999,2740 1235,2740 1235,2785 1040,2785 1040,2664.999 "
         id="polygon2006" />
      <polygon
         style="fill:#32393b"
         points="1760,2590 1760,2634.999 1685,2634.999 1685,2785 1640,2785 1640,2590 "
         id="polygon2008" />
      <polygon
         style="fill:#32393b"
         points="1490.001,2184.999 1490.001,2140 1685,2140 1685,2260 1640,2260 1640,2184.999 "
         id="polygon2010" />
      <polygon
         style="fill:#32393b"
         points="950,2184.999 950,2140 1084.999,2140 1084.999,2260 1040,2260 1040,2184.999 "
         id="polygon2012" />
      <rect
         style="fill:#32393b"
         x="1790"
         y="2140"
         width="60"
         height="44.999001"
         id="rect2014" />
      <polygon
         style="fill:#32393b"
         points="1265,2560 1265,2515 1460,2515 1460,2634.999 1415,2634.999 1415,2560 "
         id="polygon2016" />
      <polygon
         style="fill:#32393b"
         points="1115,2710 1115,2664.999 1309.999,2664.999 1309.999,2785 1265,2785 1265,2710 "
         id="polygon2018" />
      <polygon
         style="fill:#32393b"
         points="1565,2664.999 1565,2515 1610,2515 1610,2710 1490.001,2710 1490.001,2664.999 "
         id="polygon2020" />
      <polygon
         style="fill:#32393b"
         points="1160,2485 1160,2560 1115,2560 1115,2439.999 1190,2439.999 1190,2365.001 1235,2365.001 1235,2485 "
         id="polygon2022" />
      <rect
         style="fill:#32393b"
         x="950"
         y="2590"
         width="60"
         height="44.999001"
         id="rect2024" />
      <polygon
         style="fill:#32393b"
         points="1790,2560 1790,2634.999 1808,2634.999 1835,2634.999 1850,2634.999 1850,2590 1835,2590 1835,2515 1715.001,2515 1715.001,2560 "
         id="polygon2026" />
      <polygon
         style="fill:#32393b"
         points="1460,2664.999 1460,2710 1340,2710 1340,2634.999 1265,2634.999 1265,2590 1385,2590 1385,2664.999 "
         id="polygon2028" />
      <rect
         style="fill:#32393b"
         x="965"
         y="1990"
         width="119.999"
         height="120"
         id="rect2030" />
      <rect
         style="fill:#32393b"
         x="1340"
         y="2365.001"
         width="120"
         height="119.999"
         id="rect2032" />
      <rect
         style="fill:#32393b"
         x="1415"
         y="1915"
         width="120"
         height="120"
         id="rect2034" />
      <rect
         style="fill:#32393b"
         x="1190"
         y="2140"
         width="119.999"
         height="120"
         id="rect2036" />
      <rect
         style="fill:#32393b"
         x="1790"
         y="2214.999"
         width="60"
         height="120.002"
         id="rect2038" />
      <rect
         style="fill:#32393b"
         x="950"
         y="2214.999"
         width="60"
         height="120.002"
         id="rect2040" />
      <rect
         style="fill:#32393b"
         x="1565"
         y="2290"
         width="120"
         height="119.999"
         id="rect2042" />
      <rect
         style="fill:#32393b"
         x="965"
         y="2439.999"
         width="119.999"
         height="120.001"
         id="rect2044" />
      <rect
         style="fill:#32393b"
         x="1715.001"
         y="2664.999"
         width="119.999"
         height="120.001"
         id="rect2046" />
    </g>
  </g>
</svg>
